<?xml version="1.0" encoding="UTF-8" standalone="no"?>
<svg
   xmlns:dc="http://purl.org/dc/elements/1.1/"
   xmlns:cc="http://creativecommons.org/ns#"
   xmlns:rdf="http://www.w3.org/1999/02/22-rdf-syntax-ns#"
   xmlns:svg="http://www.w3.org/2000/svg"
   xmlns="http://www.w3.org/2000/svg"
   xmlns:sodipodi="http://sodipodi.sourceforge.net/DTD/sodipodi-0.dtd"
   xmlns:inkscape="http://www.inkscape.org/namespaces/inkscape"
   width="20"
   height="19"
   viewBox="0 0 20 19"
   fill="none"
   version="1.1"
   id="svg22"
   sodipodi:docname="right-white.svg"
   inkscape:version="1.0.2-2 (e86c870879, 2021-01-15)">
  <metadata
     id="metadata28">
    <rdf:RDF>
      <cc:Work
         rdf:about="">
        <dc:format>image/svg+xml</dc:format>
        <dc:type
           rdf:resource="http://purl.org/dc/dcmitype/StillImage" />
        <dc:title></dc:title>
      </cc:Work>
    </rdf:RDF>
  </metadata>
  <defs
     id="defs26" />
  <sodipodi:namedview
     pagecolor="#ffffff"
     bordercolor="#666666"
     borderopacity="1"
     objecttolerance="10"
     gridtolerance="10"
     guidetolerance="10"
     inkscape:pageopacity="0"
     inkscape:pageshadow="2"
     inkscape:window-width="1600"
     inkscape:window-height="838"
     id="namedview24"
     showgrid="false"
     inkscape:zoom="24.052632"
     inkscape:cx="10"
     inkscape:cy="11.16302"
     inkscape:window-x="-8"
     inkscape:window-y="-8"
     inkscape:window-maximized="1"
     inkscape:current-layer="svg22" />
  <path
     d="m 1.25,10.501336 h 14.825 l -4.5375,5.45 c -0.21217,0.25527 -0.31425,0.58437 -0.28378,0.91491 0.03048,0.33053 0.19101,0.63542 0.44628,0.847592 0.25527,0.212173 0.58437,0.314251 0.9149,0.283776 0.33054,-0.03048 0.63543,-0.191005 0.8476,-0.446276 l 6.25,-7.500002 c 0.04205,-0.05965 0.07965,-0.1223204 0.1125,-0.1875004 0,-0.0625 0,-0.1 0.0875,-0.1625 0.05666,-0.14332 0.08632,-0.29589 0.0875,-0.4500004 -0.0012,-0.15411 -0.03084,-0.30667 -0.0875,-0.45 0,-0.0625 10e-7,-0.1 -0.0875,-0.1625 -0.03285,-0.06517 -0.07045,-0.12784 -0.1125,-0.18749 l -6.25,-7.50000001 c -0.11753,-0.1411 -0.2647,-0.2546 -0.43106,-0.3324 -0.16635,-0.0777 -0.3478,-0.1179 -0.53144,-0.1176 -0.29207,-6e-4 -0.57511,0.1011 -0.8,0.2875 -0.12657,0.1049 -0.2312,0.23380001 -0.30789,0.37920001 -0.07669,0.1455 -0.12394,0.3046 -0.13903,0.4683 -0.0151,0.1637 0.0023,0.3288 0.05106,0.4858 0.04881,0.157 0.12811,0.3029 0.23336,0.4292 l 4.5375,5.45 H 1.25 c -0.3315,0 -0.6495,0.1317 -0.8839,0.3661 C 0.1317,8.6018752 0,8.9198152 0,9.2513352 c 0,0.3315204 0.1317,0.6494604 0.3661,0.8838908 0.2344,0.23442 0.5524,0.36611 0.8839,0.36611 z"
     fill="#F53838"
     id="path20"
     style="fill:#ffffff" />
</svg>
